<svg width="640" height="512" xmlns="http://www.w3.org/2000/svg" xmlns:xlink="http://www.w3.org/1999/xlink" xml:space="preserve" overflow="hidden"><g transform="translate(-508 556)"><g><path d="M828-556C845.7-556 860-541.7 860-524L860-460 988-460C1023.3-460 1052-431.3 1052-396L1052-108C1052-72.7 1023.3-44 988-44L668-44C632.7-44 604-72.7 604-108L604-396C604-431.3 632.7-460 668-460L796-460 796-524C796-541.7 810.3-556 828-556ZM716-172C707.2-172 700-164.8 700-156 700-147.2 707.2-140 716-140L748-140C756.8-140 764-147.2 764-156 764-164.8 756.8-172 748-172L716-172ZM812-172C803.2-172 796-164.8 796-156 796-147.2 803.2-140 812-140L844-140C852.8-140 860-147.2 860-156 860-164.8 852.8-172 844-172L812-172ZM908-172C899.2-172 892-164.8 892-156 892-147.2 899.2-140 908-140L940-140C948.8-140 956-147.2 956-156 956-164.8 948.8-172 940-172L908-172ZM772-300C772-322.1 754.1-340 732-340 709.9-340 692-322.1 692-300 692-277.9 709.9-260 732-260 754.1-260 772-277.9 772-300ZM924-260C946.1-260 964-277.9 964-300 964-322.1 946.1-340 924-340 901.9-340 884-322.1 884-300 884-277.9 901.9-260 924-260ZM556-332 572-332 572-140 556-140C529.5-140 508-161.5 508-188L508-284C508-310.5 529.5-332 556-332ZM1100-332C1126.5-332 1148-310.5 1148-284L1148-188C1148-161.5 1126.5-140 1100-140L1084-140 1084-332 1100-332Z" fill="#FFFFFF" fill-rule="nonzero" fill-opacity="1"/></g></g></svg>